<svg xmlns="http://www.w3.org/2000/svg" width="450.04564" height="181.96191" viewBox="0 0 45.004564 18.196191">
<path d="m 21.682158,18.072143 c -0.407788,-0.140951 -0.819484,-0.368435 -0.784222,-0.462426 0.02502,-0.06672 0.212641,-0.411655 0.234549,-0.463188 0.01357,-0.02451 0.216068,0.132017 0.397999,0.233705 0.360607,0.201537 0.989657,0.294312 1.432436,0.211244 0.362566,-0.06803 0.604309,-0.324218 0.604309,-0.640447 0,-0.333051 -0.160877,-0.463279 -1.126245,-0.696511 -1.152013,-0.278333 -1.434205,-0.561088 -1.447058,-1.252967 -0.01548,-0.83301 0.598944,-1.315222 1.684984,-1.315222 0.545994,0 0.980933,0.137996 1.315894,0.376504 0.09216,0.06563 0.240529,0.164164 0.208803,0.208441 -0.03326,0.05517 -0.02864,0.06533 -0.07808,0.149181 -0.06391,0.108346 -0.15109,0.297286 -0.160756,0.314902 -0.02462,0.02764 -0.21014,-0.128308 -0.433344,-0.245723 -0.338718,-0.178173 -0.465298,-0.218259 -0.8801,-0.248257 -0.573419,-0.0415 -1.200349,0.389498 -0.93315,0.964324 0.102422,0.191378 0.375831,0.318259 1.064734,0.494161 0.326701,0.08341 0.744245,0.212832 0.890784,0.287588 0.963901,0.491748 0.738949,1.787655 -0.348317,2.110538 -0.472926,0.140437 -1.195214,0.128981 -1.643187,-0.02583 z M 1.2059064e-4,15.91375 V 13.70656 H 0.33215687 0.64091916 v 1.922396 1.922396 l 1.03704934,0.0021 1.0989425,-0.0021 v 0.284795 0.284804 H 1.3536098 1.2059064e-4 Z M 3.3154287,18.120951 3.8805766,16.874949 4.7058187,15.023762 5.2909747,13.70656 h 0.5723634 l 0.8865522,2.023391 1.0476112,2.391 H 7.4854429 7.1213598 L 6.9102055,17.625505 6.6721194,17.066848 h -1.09843 -1.0839491 l -0.2272129,0.53481 -0.2206205,0.519293 H 3.6865865 Z M 6.4292096,16.496877 5.5792165,14.502419 5.136488,15.544523 C 5.0016174,15.861968 4.8667569,16.179422 4.7318963,16.496877 H 5.5860399 Z M 8.7576843,15.906576 V 13.70656 h 1.172342 c 0.8201767,-0.02302 1.9066887,-0.01527 2.0807107,0.93913 0.119897,0.756897 -0.231242,0.939743 -0.545572,1.245019 0.462877,0.193034 0.628408,0.493848 0.654114,0.965557 0.07215,0.897779 -0.561681,1.219111 -1.193898,1.26745 l -0.9550172,-0.003 H 8.7576843 Z m 2.1334087,1.658574 c 0.378364,-0.07135 0.572183,-0.291176 0.572183,-0.623535 0,-0.347542 -0.132861,-0.583397 -0.376444,-0.668313 -0.117918,-0.0411 -0.292844,-0.07477 -0.698179,-0.07477 H 9.3984828 v 0.711997 0.682723 h 0.5570083 l 0.7152229,-0.003 c 0.07517,-0.004 0.14903,-0.01134 0.220379,-0.02472 z m 0.144981,-2.060905 c 0.49218,-0.245864 0.447019,-0.95747 -0.07205,-1.13507 -0.136599,-0.04672 -0.362425,-0.09084 -0.724659,-0.09306 H 9.3984628 v 0.676403 0.676393 h 0.8562442 c 0.518248,-7.1e-5 0.595305,-0.03175 0.781347,-0.124741 z m 2.278389,0.408029 V 13.70656 h 1.479135 1.404458 v 0.290152 0.279449 h -1.162333 -1.057158 l 0.006,0.676392 -0.006,0.676403 h 1.025142 1.087536 v 0.297246 0.272354 h -1.053992 -1.058686 v 0.72258 0.665811 h 1.002239 1.252857 l -1e-5,0.268916 1e-5,0.265088 h -1.4596 -1.459598 z m 3.985129,0.01929 v -2.224988 h 0.338517 0.37553 v 1.407946 l 10e-6,2.436825 h 0.95559 1.180402 v 0.297245 0.272354 h -1.400127 -1.449922 z"/>
<path d="M 6.8454785,3.4402982 V 0 H 8.6358274 V 8.6709563 H 6.8454785 V 5.1253403 H 1.7903589 v 3.545616 H 0 V 0 H 1.7903589 V 3.4402982 Z M 19.518379,0 h 2.036093 L 17.552501,5.4412877 V 8.7060581 H 15.797254 V 5.4412877 L 11.795282,0 h 2.141399 l 2.808405,3.7913497 z m 12.181424,0 c 0.807425,0 1.26379,0.42126128 1.26379,1.2637829 v 2.1765153 c 0,0.4563661 -0.386162,0.8776275 -0.877629,0.8776275 0.491467,0 0.877629,0.3861564 0.877629,0.8776286 v 2.2818261 c 0,0.8074245 -0.421263,1.2637897 -1.26379,1.2637897 H 24.257551 V 0 Z m -5.651892,3.510509 h 5.125323 V 1.5797294 h -5.125323 z m 0,3.58072 h 5.125323 V 5.0551364 H 26.047911 Z M 45.004599,1.5797294 h -6.775265 v 1.8956747 h 6.599744 V 5.0551364 H 38.229334 V 7.091229 h 6.775265 V 8.6709563 H 36.438985 V 0 h 8.565614 z"/>
</svg>