<?xml version="1.0" encoding="UTF-8"?><svg id="b" xmlns="http://www.w3.org/2000/svg" width="212.66" height="44.63" xmlns:xlink="http://www.w3.org/1999/xlink" viewBox="0 0 212.66 44.63"><defs><linearGradient id="d" x1="111" y1="4.44" x2="111" y2="42.7" gradientUnits="userSpaceOnUse"><stop offset="0" stop-color="#fff"/><stop offset="1" stop-color="#d784b1"/></linearGradient><linearGradient id="e" x1="199.13" y1="4.27" x2="199.13" y2="42.93" xlink:href="#d"/><linearGradient id="f" x1="169.1" y1="4.75" x2="169.1" y2="42.26" xlink:href="#d"/><linearGradient id="g" x1="137.16" y1="4.56" x2="137.16" y2="42.26" xlink:href="#d"/><linearGradient id="h" x1="90.5" y1="4.87" x2="90.5" y2="42.28" xlink:href="#d"/></defs><g id="c"><g><g><path d="M109.08,7.73c-.12,.29-.18,.51-.24,.9h-.72c-.67-2.97-4.2-3.95-6.34-3.71V15.69h4.26l.03,15.75h-4.3v10.78c2.24,.24,6-.83,6.32-3.71h.73c.13,.55,.18,.71,.26,.9,1.58,4.21,5.08,3.41,11.16,2.8v-13.16h-3.45c-.19,1.42-1.07,2.39-2.28,2.39h-4.47v-6.37s7.72,2.54,7.72,2.54v-8.37l-7.74,2.84v-6.39s4.67,0,4.67,0c1.1,.09,1.91,1.03,2.09,2.39h3.45V4.93c-6.08-.6-9.58-1.4-11.16,2.8Z" fill="url(#d)"/><path d="M208.87,24.39c-2.31-1.47-5.29-2.09-7.97-2.66-4.89-1.03-6.85-2.23-6.85-4.57s1.77-3.65,5.05-3.65c2.84,0,6.91,2.6,7.61,7.23h5.64V4.95c-4.06,.05-5.19,.96-5.8,4.25l-.6,.23c-1.95-3.02-5.82-5.16-9.42-5.16h-.62c-3.32,0-6.21,1.22-8.05,3.35-1.48,1.71-2.25,3.96-2.25,6.58,0,2.82,.78,5.05,2.43,6.82,2.6,2.78,6.77,3.77,10.23,4.58,4.38,1.03,5.94,1.89,5.94,3.71,0,2.34-1.74,3.59-4.71,3.59s-7.38-2.45-7.96-7.45h-5.6s0,16.82,0,16.82c4.06-.05,5.19-.96,5.8-4.25l.6-.23c1.95,3.02,5.82,5.16,9.42,5.16,3.14,0,6-1.2,7.99-3.29,1.91-2.01,2.92-4.76,2.93-7.93,0-3.29-1.21-5.66-3.8-7.32Z" fill="url(#e)"/><path d="M184.02,15.6V4.82c-2.29-.26-6.14,.82-6.47,3.72h-.73c-.67-2.97-4.2-3.95-6.34-3.71V15.6h4.89v16.89l-8.94-20.33c-2.98-6.77-5.41-8.2-12.24-7.03V15.6h4.74v15.84h-4.74v10.78c2.24,.24,6-.83,6.32-3.71h.73c.68,2.98,4.3,3.96,6.49,3.72v-10.78h-4.89V14.87l12.36,27.39h8.15v-10.68h-4.01V15.6h4.68Z" fill="url(#f)"/><path d="M147.25,31.44l-5.19-16.08h4.4V4.61c-.56-.02-1.71-.05-2.53-.05-2.36,0-5.92,.96-6.24,3.74h-.73c-.65-2.86-4.01-3.74-6.26-3.74-1.24,0-2.08,.01-2.53,.04V15.36h4.1l-5.13,16.08h-4.91v10.78c2.24,.24,6-.83,6.32-3.71h.73c.68,2.98,4.3,3.96,6.49,3.72v-10.78h-4.94l1.48-4.63h9.75l1.5,4.63h-5.03v10.78c2.24,.24,6-.83,6.32-3.71h.73c.68,2.98,4.3,3.96,6.49,3.72v-10.78h-4.83Zm-6.05-13.2c-.06,.55-.23,1.1-.48,1.6-.2,.39-.45,.75-.79,1.14-.2,.22-.4,.43-.6,.62-.35,.35-.69,.69-.97,1.1-.41,.61-.71,1.41-.85,2.26-.04,.24-.18,.42-.35,.42h0c-.17,0-.31-.17-.35-.42-.14-.88-.45-1.7-.89-2.32-.27-.38-.59-.69-.92-1.01-.15-.15-.31-.3-.47-.47-.42-.44-1.01-1.15-1.27-2.21-.14-.58-.17-1.24-.08-1.85,.09-.61,.3-1.18,.59-1.62,.29-.44,.66-.75,1.07-.89,.4-.14,.82-.1,1.21,.1,.47,.25,.88,.73,1.14,1.36,0,.02,.01,.03,.02,.05,0-.01,.01-.03,.02-.04,.28-.61,.69-1.07,1.16-1.3,.34-.17,.71-.21,1.06-.12,.36,.09,.7,.32,.98,.66,.29,.34,.51,.8,.65,1.31,.14,.52,.18,1.08,.12,1.63Z" fill="url(#g)"/><path d="M99.65,15.69h-4.8c.02,2.04,.05,4.3,.08,6.52,.01,.78,.02,10.31,.03,16.32h0c-.22,1.94-1.99,3.06-3.81,3.51-.24,.06-.48,.11-.71,.14-.26,.04-.51,.07-.75,.08,0,0,0,0,0,0-.25,.02-.63,.02-.98,.02-.09,0-.18,0-.28,0-.26,0-.46-.01-.5-.01h0c-2.31-.06-4.63-.27-6.57-.47v-12.73h3.45c.19,1.42,1.07,2.39,2.28,2.39h.85s.71,0,.71,0h2.49c0-.36,0-.72,0-1.08-.01-6.69-.03-13.51-.05-14.7h-4.97V4.91c2.15-.23,5.67,.74,6.34,3.71h.73c.33-2.89,4.18-3.97,6.47-3.72V15.69Z" fill="url(#h)"/></g><g><path d="M113.93,42.46c-2.68,0-4.46-.71-5.47-3.42-.08-.18-.13-.34-.23-.77h-.39c-.46,2.8-4.11,3.97-6.52,3.71l-.18-.02v-11.16h4.3l-.03-15.35h-4.26V4.3l.18-.02c2.27-.24,5.75,.75,6.52,3.71h.4c.06-.32,.12-.52,.23-.77,1.49-3.97,4.62-3.64,9.79-3.09,.5,.05,1.02,.11,1.57,.16l.18,.02v13.53h-3.82l-.02-.17c-.17-1.27-.92-2.13-1.91-2.21h-4.47s.01,5.9,.01,5.9l7.74-2.85v8.93l-7.73-2.54v5.9h4.28c1.08,0,1.9-.87,2.08-2.22l.02-.17h3.82v13.54l-.18,.02c-.54,.05-1.06,.11-1.57,.16-1.64,.17-3.08,.33-4.32,.33Zm-6.45-4.59h1.07l.04,.16c.13,.55,.17,.69,.25,.86,1.39,3.69,4.23,3.39,9.38,2.85,.45-.05,.91-.1,1.39-.15v-12.77h-3.08c-.26,1.44-1.22,2.39-2.45,2.39h-4.67v-6.85s7.72,2.54,7.72,2.54v-7.81l-7.74,2.84v-6.88s4.87,0,4.87,0c1.15,.09,2.02,1.02,2.26,2.39h3.08V4.68c-.48-.05-.94-.1-1.39-.15-5.16-.55-8-.85-9.38,2.84h0c-.11,.27-.17,.47-.23,.86l-.03,.17h-1.05l-.04-.16c-.62-2.73-3.85-3.73-5.95-3.58V15.06h4.26l.03,16.15h-4.3v10.39c2.31,.18,5.63-.95,5.92-3.55l.02-.18Z" fill="#252323"/><path d="M201.32,42.7c-3.59,0-7.47-2.1-9.5-5.12l-.34,.13c-.64,3.33-1.95,4.26-5.97,4.3h-.2s0-17.23,0-17.23h5.98s.02,.19,.02,.19c.58,4.96,4.97,7.28,7.76,7.28s4.51-1.2,4.51-3.39c0-1.63-1.41-2.49-5.79-3.52-3.42-.8-7.68-1.8-10.33-4.63-1.67-1.79-2.49-4.07-2.49-6.96,0-2.66,.8-4.98,2.3-6.71,1.88-2.17,4.87-3.42,8.2-3.42h.62c3.59,0,7.47,2.1,9.5,5.12l.34-.13c.64-3.33,1.95-4.26,5.97-4.3h.2s0,16.2,0,16.2h-6.01l-.03-.17c-.7-4.61-4.75-7.06-7.42-7.06-3.22,0-4.85,1.16-4.85,3.45,0,2.16,1.81,3.34,6.69,4.37l.09,.02c2.64,.56,5.63,1.2,7.94,2.67h0c2.62,1.67,3.89,4.12,3.89,7.49,0,3.22-1.03,6.01-2.98,8.06-2.02,2.13-4.99,3.35-8.13,3.36Zm-9.34-5.61l.09,.14c1.93,2.99,5.73,5.07,9.25,5.07,3.04,0,5.9-1.18,7.84-3.23,1.88-1.98,2.87-4.67,2.87-7.79,0-3.26-1.18-5.54-3.7-7.15h0c-2.25-1.43-5.21-2.06-7.81-2.61l-.09-.02c-5.11-1.08-7-2.37-7-4.77,0-1.76,.91-3.85,5.25-3.85,2.77,0,6.98,2.51,7.78,7.23h5.26V4.72c-3.74,.07-4.81,.9-5.4,4.08l-.02,.11-.85,.33-.09-.14c-1.93-2.99-5.73-5.07-9.25-5.07h-.62c-3.21,0-6.09,1.2-7.9,3.28-1.44,1.66-2.2,3.89-2.2,6.45,0,2.78,.78,4.97,2.38,6.68,2.57,2.75,6.76,3.73,10.13,4.52,4.04,.95,6.1,1.81,6.1,3.91,0,2.41-1.79,3.79-4.91,3.79-2.9,0-7.45-2.37-8.14-7.46h-5.22s0,16.41,0,16.41c3.74-.07,4.81-.9,5.4-4.08l.02-.11,.85-.33Z" fill="#252323"/><path d="M166.62,42.03c-2.24,0-5.27-1.08-5.98-3.75h-.4c-.46,2.8-4.11,3.98-6.52,3.71l-.18-.02v-11.16h4.74V15.37h-4.74V4.52l.17-.03c6.88-1.18,9.44,.29,12.46,7.15l8.56,19.46V15.37h-4.89V4.21l.18-.02c2.27-.24,5.75,.75,6.52,3.71h.4c.47-2.82,4.2-3.99,6.67-3.71l.18,.02V15.37h-4.68v15.57h4.01v11.08h-8.48l-.05-.12-11.98-26.54v15.45h4.89v11.16l-.18,.02c-.22,.02-.45,.04-.69,.04Zm-6.73-4.15h1.07l.04,.16c.63,2.76,3.95,3.74,6.1,3.58v-10.4h-4.89V14.43l.38-.08,12.31,27.27h7.82v-10.27h-4.01V14.97h4.68V4.57c-2.36-.19-5.77,.93-6.07,3.56l-.02,.18h-1.07l-.04-.16c-.62-2.73-3.85-3.73-5.95-3.58V14.97h4.89v17.09l-.38,.08-8.94-20.33c-2.93-6.65-5.27-8.04-11.86-6.95V14.97h4.74V31.21h-4.74v10.39c2.3,.18,5.63-.95,5.92-3.55l.02-.18Z" fill="#252323"/><path d="M150.97,42.02c-2.24,0-5.27-1.08-5.98-3.75h-.4c-.46,2.8-4.11,3.97-6.52,3.71l-.18-.02v-11.16h4.96l-1.37-4.23h-9.46l-1.35,4.23h4.87v11.16l-.18,.02c-2.26,.26-5.88-.76-6.67-3.71h-.4c-.46,2.8-4.1,3.97-6.52,3.71l-.18-.02v-11.16h4.97l5-15.68h-4.02V3.98h.19c.46-.04,1.31-.05,2.54-.05,2.52,0,5.68,.98,6.42,3.74h.39c.48-2.95,4.38-3.74,6.41-3.74,.78,0,1.94,.02,2.53,.05h.19V15.13h-4.32s5.06,15.68,5.06,15.68h4.88v11.16l-.18,.02c-.22,.02-.45,.04-.69,.04Zm-6.73-4.15h1.07l.04,.16c.63,2.76,3.95,3.74,6.1,3.58v-10.4h-4.77l-5.32-16.48h4.47V4.37c-.62-.02-1.62-.04-2.32-.04-1.95,0-5.72,.74-6.04,3.56l-.02,.18h-1.06l-.04-.16c-.65-2.83-4.12-3.58-6.06-3.58-1.06,0-1.84,0-2.33,.03V14.73h4.17l-5.25,16.48h-4.86v10.39c2.31,.18,5.63-.95,5.92-3.55l.02-.18h1.07l.04,.16c.63,2.76,3.94,3.75,6.1,3.58v-10.4h-5.02l1.6-5.03h10.04l1.62,5.03h-5.11v10.39c2.31,.18,5.63-.95,5.92-3.55l.02-.18Zm-7.51-12.72c-.27,0-.49-.24-.55-.59-.13-.85-.44-1.64-.86-2.24-.26-.37-.57-.67-.9-.99-.17-.17-.32-.32-.47-.47-.44-.46-1.05-1.2-1.32-2.3-.15-.61-.18-1.29-.09-1.92,.09-.63,.31-1.24,.62-1.7,.32-.48,.72-.81,1.17-.97,.45-.16,.93-.12,1.37,.11,.43,.22,.8,.62,1.08,1.14,.3-.5,.67-.87,1.08-1.07,.39-.19,.8-.24,1.2-.14,.4,.1,.77,.35,1.08,.72,.31,.37,.54,.85,.69,1.38,.14,.54,.19,1.13,.12,1.7h0c-.06,.57-.23,1.15-.5,1.67-.21,.41-.47,.78-.82,1.18-.2,.22-.41,.43-.61,.63-.35,.35-.67,.67-.95,1.08-.4,.58-.69,1.36-.81,2.18-.05,.35-.28,.59-.55,.59Zm-1.84-10.87c-.14,0-.28,.02-.42,.07-.36,.12-.7,.4-.96,.81-.27,.42-.47,.96-.56,1.54-.09,.58-.06,1.21,.08,1.77,.25,1.01,.82,1.69,1.22,2.12,.14,.15,.29,.29,.43,.43,.37,.36,.69,.67,.97,1.07,.46,.64,.78,1.5,.93,2.41,.05,.32,.25,.32,.3,0,.14-.88,.45-1.71,.88-2.34,.29-.43,.64-.77,1-1.13,.2-.19,.4-.4,.59-.62,.33-.37,.57-.72,.76-1.09,.24-.48,.4-1.01,.46-1.53h0c.06-.52,.02-1.06-.11-1.56-.13-.48-.34-.91-.6-1.23-.26-.31-.56-.51-.88-.59-.31-.08-.62-.04-.92,.11-.43,.21-.8,.64-1.07,1.21l-.19,.41-.19-.37,.16-.09h0s-.17,.04-.17,.04c-.25-.59-.63-1.04-1.05-1.26-.21-.11-.42-.16-.63-.16Z" fill="#252323"/><path d="M88.54,42.05c-.09,0-.18,0-.28,0h-.28c-.14,0-.27-.01-.36-.01h-.14c-2.26-.06-4.5-.26-6.59-.47l-.18-.02v-13.11h3.82l.02,.17c.18,1.35,1,2.22,2.08,2.22h3.85s0-.88,0-.88c0-4.72-.03-12.68-.05-14.5h-4.97V4.3l.18-.02c2.27-.24,5.75,.75,6.52,3.71h.4c.47-2.82,4.2-3.99,6.67-3.71l.18,.02V15.45h-4.8c.02,1.98,.05,4.17,.08,6.32,0,.57,.01,5.74,.02,10.74v5.58c-.19,1.76-1.67,3.14-3.96,3.71-.24,.06-.49,.11-.73,.15-.26,.04-.52,.07-.77,.08-.17,.01-.41,.02-.72,.02Zm-1.26-.42h.21s.24,.01,.5,.02h.27c.43,.01,.76,0,.96-.01,.25-.02,.49-.04,.74-.08,.23-.04,.46-.08,.69-.14,1.02-.25,3.41-1.08,3.66-3.34v-5.56c-.02-5-.02-10.17-.03-10.73-.03-2.22-.06-4.48-.08-6.52v-.2s4.8,0,4.8,0V4.66c-2.35-.19-5.77,.93-6.07,3.56l-.02,.18h-1.07l-.04-.16c-.62-2.73-3.84-3.74-5.95-3.58V15.05h4.97v.2c.02,1.33,.04,9.78,.05,14.7v1.28s-4.25,0-4.25,0c-1.23,0-2.19-.95-2.45-2.39h-3.08v12.35c1.96,.19,4.06,.38,6.17,.44h0Z" fill="#252323"/></g><g><g><path d="M54.24,4.78c.48-.03,0-4.68-5.18-4.33-7.65,.53-11.42,9.94-13.93,18.36,.08-6.11-2.24-11.53-10.42-12.17C7.03,5.29,.53,26.06,11.08,25.33c7.16-.49,10.06-8.9,6.57-8.66-1.79,.12-3.06,1.16-2.14,1.09,1.98-.14,.72,2.14-1.12,2.27-3.82,.26-.16-10.56,9.23-11.21,1.21-.08,2.23,.02,3.07,.26-4.98,3.95-10.71,27.81-18.46,28.34-3.87,.27-3.15-3.26-.78-3.43,1.4-.1,1.23,1.59-.32,1.7-.68,.05-.36,.75,1,.66,1.79-.12,3.47-1.83,3.72-3.78,.28-1.48-.89-2.69-3.12-2.53-8.57,.59-13.1,15-.85,14.15,14.43-1,16.84-25.35,22.18-32.08,2.66,6.61-4.2,21.09-6.17,25.04-.27,.45,.14,.98,.72,.94l4.89-.34c.68-.05,1.24-.47,1.46-1,5.56-12.97,9.75-31.05,23.25-31.98Z" fill="#4674b5"/><path d="M49.61,.43c4.66,0,5.09,4.31,4.63,4.35-13.51,.93-17.69,19.01-23.25,31.98-.22,.53-.78,.96-1.46,1l-4.89,.34s-.04,0-.06,0c-.55,0-.92-.51-.66-.94,1.97-3.96,8.83-18.44,6.17-25.04-5.35,6.73-7.76,31.08-22.18,32.08-.35,.02-.68,.04-1.01,.04-10.98,0-6.46-13.61,1.86-14.19,.13,0,.25-.01,.38-.01,1.98,0,3,1.15,2.74,2.55-.26,1.95-1.93,3.66-3.72,3.78-.08,0-.16,0-.24,0-1.15,0-1.4-.63-.76-.67,1.51-.1,1.71-1.7,.43-1.7-.04,0-.07,0-.11,0-2.29,.16-3.04,3.44,.37,3.44,.13,0,.26,0,.41-.01,7.74-.53,13.48-24.39,18.46-28.34-.64-.19-1.39-.29-2.26-.29-.26,0-.53,0-.81,.03-9.28,.64-12.97,11.21-9.37,11.21,.04,0,.09,0,.13,0,1.79-.12,3.03-2.27,1.28-2.27-.05,0-.11,0-.17,0-.03,0-.05,0-.08,0-.77,0,.48-.98,2.21-1.1,.05,0,.1,0,.14,0,3.26,0,.35,8.18-6.72,8.67-.18,.01-.36,.02-.53,.02C1.07,25.35,6.92,6.58,23.06,6.58c.54,0,1.09,.02,1.65,.06,8.18,.64,10.5,6.06,10.42,12.17C37.63,10.39,41.41,.98,49.06,.45c.19-.01,.38-.02,.56-.02m0-.4c-.19,0-.38,0-.58,.02-7.22,.5-11.08,8.63-13.6,16.43-.64-6.22-4.3-9.74-10.69-10.24-.56-.04-1.13-.06-1.68-.07h0c-6.71,0-12.59,3.25-15.73,8.69-1.87,3.23-2.26,6.56-1.03,8.69,.58,1,1.78,2.19,4.26,2.19,.18,0,.37,0,.56-.02,5.6-.39,8.5-5.25,8.42-7.63-.04-1.15-.69-1.83-1.73-1.83-.06,0-.11,0-.17,0-1.32,.09-2.84,.72-2.82,1.4,0,.05,.03,.49,.63,.49,.03,0,.07,0,.1,0,.05,0,.09,0,.14,0,.16,0,.44,.02,.44,.17,.01,.39-.73,1.23-1.75,1.3-.04,0-.07,0-.11,0-.61,0-.93-.41-.96-1.21-.09-2.53,3.33-8.72,10.35-9.2,.27-.02,.53-.03,.79-.03,.51,0,.99,.04,1.43,.11-1.86,1.96-3.73,6.17-5.88,10.97-3.44,7.71-7.34,16.44-11.78,16.75-.13,0-.26,.01-.38,.01-1.18,0-1.9-.43-1.92-1.14-.02-.67,.61-1.43,1.58-1.5,.03,0,.06,0,.09,0,.13,0,.43,.03,.44,.26,0,.24-.27,.6-.9,.64-.51,.04-.73,.34-.72,.64,.01,.42,.48,.83,1.5,.83,.08,0,.17,0,.27,0,1.97-.14,3.81-1.99,4.09-4.13,.13-.72-.04-1.42-.48-1.96-.56-.67-1.5-1.04-2.66-1.04-.13,0-.26,0-.4,.01-2.39,.16-4.64,1.36-6.35,3.36C.82,34.85-.07,37.16,0,39.21c.12,3.39,2.69,5.42,6.9,5.42,.33,0,.68-.01,1.03-.04,10.17-.7,14.47-12.57,17.92-22.11,1.42-3.93,2.67-7.37,4.1-9.51,1.84,6.62-4.38,19.96-6.39,24.01-.17,.27-.18,.64,0,.95,.2,.35,.59,.57,1.02,.57,.03,0,.06,0,.09,0l4.89-.34c.8-.06,1.51-.55,1.8-1.25,.97-2.26,1.87-4.62,2.83-7.11,4.51-11.74,9.17-23.87,20.08-24.62,.16-.01,.54-.12,.52-.91-.04-1.1-1.07-4.24-5.17-4.24h0Z" fill="#4674b5"/></g><g><path d="M87.44,18.39c-.93,2.08-1.77,2.79-4.3,2.66,2.95-5.96,4.23-12.37,2.13-12.78-3.72-.77-10.33,16.18-7.14,15.96,0,0-1.4,.1-1.65,.11-3.92,.27-2.35-3.79-1.82-5.07,.79-1.9,4.34-9.79,4.34-9.79,.13-.4-.18-.76-.66-.73-1.21,.08-.98,.88-2.29,.97l-3.05,.21c.04-.17-3.83,8.17-4.67,10.12-1.16,2.36-2.75,5.04-4.01,5.13-3.15,.22-1.39-3-1.39-3l5.27-11.96c.18-.4-.18-.76-.61-.73-1.26,.09-.98,.88-2.34,.98-.48,.03-3.05,.21-3.05,.21,0,0-2.71,5.81-4.75,10.29-.87,1.37-3.6,4.94-8.72,5.29-2.47,.17-3.44-1.01-3.52-2.76,.45,.4,1.14,.61,2.21,.54,9.73-.67,13.96-14.11,5.44-13.52-6.53,.45-15.29,9.26-14.97,16.76,.16,3.77,3.7,6.06,8.98,5.7,3.6-.25,6.43-2.2,8.51-4.39,.25,2.02,1.58,3.69,5.43,3.42,2.32-.16,4.34-1.93,6.03-4.41,.39,2.21,2.01,3.86,6.12,3.57,2.81-.19,5.47-2.65,7.71-5.9l.97-.07c2.37-.16,5.58-1.16,7.79-5.22l-2.01-1.58Zm-35.07-5.01c2.95-.2-1.19,7.43-4.48,7.66-1.21,.08-.73-1.15-.73-1.15-.44-.06-.82,.01-1.16,.17,1.32-3.23,4.14-6.52,6.37-6.67Z" fill="#456fa9"/><path d="M85.01,8.24c.09,0,.17,0,.25,.03,2.11,.41,.82,6.82-2.13,12.78,.19,0,.37,.01,.54,.01,2.12,0,2.91-.75,3.77-2.67l2.01,1.58c-2.21,4.06-5.42,5.06-7.79,5.22l-.97,.07c-2.24,3.25-4.9,5.71-7.71,5.9-.31,.02-.61,.03-.89,.03-3.46,0-4.88-1.56-5.23-3.61-1.69,2.48-3.7,4.25-6.03,4.41-.27,.02-.53,.03-.78,.03-3.26,0-4.42-1.58-4.65-3.45-2.08,2.19-4.91,4.14-8.51,4.39-.37,.03-.73,.04-1.08,.04-4.68,0-7.76-2.23-7.9-5.73-.32-7.5,8.43-16.31,14.97-16.76,.18-.01,.36-.02,.53-.02,7.81,0,3.55,12.88-5.97,13.54-.14,0-.28,.01-.4,.01-.84,0-1.41-.2-1.8-.55,.07,1.64,.93,2.78,3.06,2.78,.15,0,.3,0,.46-.02,5.12-.35,7.85-3.93,8.72-5.29,2.04-4.48,4.75-10.29,4.75-10.29,0,0,2.57-.18,3.05-.21,1.36-.09,1.08-.89,2.34-.98,.02,0,.03,0,.05,0,.41,0,.73,.35,.56,.73l-5.27,11.96s-1.64,3.01,1.1,3.01c.09,0,.19,0,.29-.01,1.26-.09,2.84-2.77,4.01-5.13,.83-1.93,4.63-10.12,4.67-10.12,0,0,0,0,0,0,0,0,2.52-.17,3.05-.21,1.31-.09,1.08-.89,2.29-.97,.02,0,.04,0,.06,0,.45,0,.72,.35,.6,.73,0,0-3.55,7.89-4.34,9.79-.51,1.24-2,5.09,1.46,5.09,.11,0,.23,0,.36-.01,.24-.02,1.65-.11,1.65-.11-.02,0-.04,0-.06,0-2.98,0,3.21-15.99,6.94-15.99m-39.01,11.8c.26-.12,.54-.18,.86-.18,.1,0,.19,0,.3,.02,0,0-.45,1.16,.62,1.16,.04,0,.07,0,.11,0,3.25-.22,7.33-7.66,4.59-7.66-.04,0-.07,0-.11,0-2.23,.15-5.05,3.44-6.37,6.67M85.01,7.84c-1.62,0-3.3,2.33-4.43,4.28-2.31,4-4.28,9.86-3.52,11.78l-.6,.04c-.12,0-.23,.01-.33,.01-.76,0-1.29-.21-1.56-.61-.47-.7-.31-2.02,.47-3.92,.78-1.87,4.3-9.7,4.34-9.78,.11-.33,.07-.64-.11-.88-.19-.26-.5-.41-.86-.41-.03,0-.06,0-.09,0-.73,.05-1.06,.34-1.33,.57-.24,.21-.43,.37-.96,.41l-3,.21h-.02s-.02,0-.02,0c-.27,0-.33,.12-2.38,4.57-.99,2.14-2.2,4.79-2.63,5.79-2.14,4.33-3.28,4.86-3.67,4.89-.09,0-.18,0-.27,0-.55,0-.91-.13-1.07-.4-.33-.55,.14-1.67,.33-2.02l5.28-11.99c.13-.28,.1-.59-.06-.84-.18-.28-.51-.45-.87-.45-.03,0-.05,0-.08,0-.75,.05-1.08,.34-1.35,.57-.24,.21-.43,.37-.99,.41l-3.05,.21-.24,.02-.1,.21c-.03,.06-2.72,5.84-4.74,10.27-.91,1.44-3.54,4.75-8.39,5.08-.15,.01-.29,.02-.43,.02-1.42,0-2.26-.53-2.55-1.63,.37,.13,.8,.2,1.3,.2,.14,0,.28,0,.43-.02,6.55-.45,10.53-6.41,10.4-10.31-.09-2.53-1.75-4.04-4.45-4.04-.18,0-.37,0-.56,.02-6.62,.46-15.67,9.42-15.34,17.17,.16,3.72,3.42,6.12,8.3,6.12,.36,0,.73-.01,1.1-.04,2.97-.21,5.74-1.54,8.24-3.97,.42,1.52,1.66,3.03,4.9,3.03,.26,0,.52,0,.81-.03,2.04-.14,4-1.45,5.83-3.88,.55,1.55,1.96,3.08,5.41,3.08,.29,0,.6-.01,.92-.03,2.63-.18,5.28-2.17,7.9-5.92l.78-.05c3.56-.25,6.29-2.07,8.11-5.43l.16-.3-.27-.21-2.01-1.58-.4-.32-.21,.47c-.79,1.77-1.42,2.42-3.31,2.44,2.4-5.04,3.52-10.1,2.61-11.94-.23-.46-.59-.76-1.04-.85-.1-.02-.22-.03-.33-.03h0Zm-38.31,11.62c1.45-3.04,3.94-5.57,5.7-5.69,.03,0,.06,0,.09,0h0c.29,0,.48,.09,.5,.55,.06,1.87-2.83,6.15-5.12,6.31-.03,0-.06,0-.09,0-.07,0-.23,0-.27-.08-.07-.1-.03-.38,.03-.54l.18-.47-.5-.07c-.12-.02-.23-.02-.35-.02-.06,0-.11,0-.17,0h0Z" fill="#4674b5"/></g></g><g><g><path d="M54.24,4.35c.48-.03,0-4.68-5.18-4.33-7.65,.53-11.42,9.94-13.93,18.36,.08-6.11-2.24-11.53-10.42-12.17C7.03,4.85,.53,25.62,11.08,24.9c7.16-.49,10.06-8.9,6.57-8.66-1.79,.12-3.06,1.16-2.14,1.09,1.98-.14,.72,2.14-1.12,2.27-3.82,.26-.16-10.56,9.23-11.21,1.21-.08,2.23,.02,3.07,.26-4.98,3.95-10.71,27.81-18.46,28.34-3.87,.27-3.15-3.26-.78-3.43,1.4-.1,1.23,1.59-.32,1.7-.68,.05-.36,.75,1,.66,1.79-.12,3.47-1.83,3.72-3.78,.28-1.48-.89-2.69-3.12-2.53-8.57,.59-13.1,15-.85,14.15,14.43-1,16.84-25.35,22.18-32.08,2.66,6.61-4.2,21.09-6.17,25.04-.27,.45,.14,.98,.72,.94l4.89-.34c.68-.05,1.24-.47,1.46-1,5.56-12.97,9.75-31.05,23.25-31.98Z" fill="#fff"/><path d="M49.61,.4c2.1,0,3.18,.93,3.73,1.71,.52,.75,.66,1.53,.65,1.86-11.25,.94-15.97,13.23-20.54,25.12-.96,2.49-1.86,4.84-2.83,7.09-.17,.42-.62,.72-1.12,.76l-4.92,.34c-.17,0-.28-.09-.32-.16-.04-.08-.02-.13,.02-.2,2.72-5.48,8.78-18.92,6.18-25.37l-.26-.64-.43,.54c-1.71,2.16-3.08,5.95-4.67,10.34-3.37,9.32-7.57,20.92-17.22,21.59-.33,.02-.66,.03-.98,.03-3.77,0-5.99-1.69-6.1-4.65-.13-3.78,3.33-8.42,7.98-8.74,.12,0,.23-.01,.35-.01,.91,0,1.64,.27,2.04,.75,.3,.36,.4,.81,.31,1.34-.23,1.75-1.77,3.32-3.35,3.43-.07,0-.14,0-.21,0-.04,0-.07,0-.1,0,.68-.25,1.03-.82,1.02-1.33-.02-.52-.41-1.04-1.24-1.04-.05,0-.09,0-.14,0-1.48,.1-2.36,1.29-2.32,2.33,.03,.93,.76,1.91,2.72,1.91,.14,0,.28,0,.43-.02,4.92-.34,8.92-9.31,12.45-17.22,2.23-4.99,4.33-9.7,6.22-11.21l.61-.48-.74-.22c-.7-.2-1.49-.31-2.37-.31-.27,0-.55,0-.84,.03-7.08,.49-11.21,6.77-11.1,10.03,.04,1.24,.7,1.98,1.76,1.98,.05,0,.11,0,.16,0,1.38-.1,2.53-1.25,2.49-2.13-.01-.36-.22-.73-.73-.88,.37-.16,.89-.31,1.49-.35,.04,0,.08,0,.12,0,.22,0,.89,0,.93,1.06,.08,2.21-2.78,6.47-7.67,6.81-.17,.01-.34,.02-.5,.02-1.66,0-2.89-.62-3.56-1.79-1.07-1.85-.66-4.95,1.03-7.89,1.12-1.95,5.53-8.29,15.04-8.29,0,0,0,0,0,0,.53,0,1.08,.02,1.61,.06,6.77,.53,10.15,4.49,10.05,11.77l.78,.12C37.94,10.35,41.67,.93,49.08,.42c.18-.01,.36-.02,.53-.02M49.61,0c-.18,0-.36,0-.56,.02-7.65,.53-11.42,9.94-13.93,18.36,.08-6.11-2.24-11.53-10.42-12.17-.56-.04-1.11-.06-1.65-.06-16.14,0-21.99,18.77-12.51,18.77,.17,0,.35,0,.53-.02,7.06-.49,9.98-8.67,6.72-8.67-.05,0-.09,0-.14,0-1.74,.12-2.98,1.1-2.21,1.1,.02,0,.05,0,.08,0,.06,0,.11,0,.17,0,1.75,0,.5,2.15-1.28,2.27-.05,0-.09,0-.13,0-3.6,0,.09-10.57,9.37-11.21,.28-.02,.55-.03,.81-.03,.86,0,1.61,.1,2.26,.29-4.98,3.95-10.71,27.81-18.46,28.34-.14,0-.28,.01-.41,.01-3.41,0-2.66-3.28-.37-3.44,.04,0,.08,0,.11,0,1.28,0,1.08,1.6-.43,1.7-.64,.04-.39,.67,.76,.67,.08,0,.16,0,.24,0,1.79-.12,3.47-1.83,3.72-3.78,.26-1.39-.76-2.55-2.74-2.55-.12,0-.25,0-.38,.01-8.32,.57-12.84,14.19-1.86,14.19,.32,0,.66-.01,1.01-.04,14.43-1,16.84-25.35,22.18-32.08,2.66,6.61-4.2,21.09-6.17,25.04-.26,.43,.11,.94,.66,.94,.02,0,.04,0,.06,0l4.89-.34c.68-.05,1.24-.47,1.46-1,5.56-12.97,9.75-31.05,23.25-31.98C54.71,4.31,54.27,0,49.61,0h0Z" fill="#4674b5"/></g><g><path d="M87.44,17.95c-.93,2.08-1.77,2.79-4.3,2.66,2.95-5.96,4.23-12.37,2.13-12.78-3.72-.77-10.33,16.18-7.14,15.96l-1.65,.11c-3.92,.27-2.35-3.79-1.82-5.07,.79-1.9,4.34-9.79,4.34-9.79,.13-.4-.18-.76-.66-.73-1.21,.08-.98,.88-2.29,.97l-3.05,.21c.04-.17-3.83,8.17-4.67,10.12-1.16,2.36-2.75,5.04-4.01,5.13-3.15,.22-1.39-3-1.39-3l5.27-11.96c.18-.4-.18-.76-.61-.73-1.26,.09-.98,.88-2.34,.98-.48,.03-3.05,.21-3.05,.21,0,0-2.71,5.81-4.75,10.29-.87,1.37-3.6,4.94-8.72,5.29-2.47,.17-3.44-1.01-3.52-2.76,.45,.4,1.14,.61,2.21,.54,9.73-.67,13.96-14.11,5.44-13.52-6.53,.45-15.29,9.26-14.97,16.76,.16,3.77,3.7,6.06,8.98,5.7,3.6-.25,6.43-2.2,8.51-4.39,.25,2.02,1.58,3.69,5.43,3.42,2.32-.16,4.34-1.93,6.03-4.41,.39,2.21,2.01,3.86,6.12,3.57,2.81-.19,5.47-2.65,7.71-5.9l.97-.07c2.37-.16,5.58-1.16,7.79-5.22l-2.01-1.58Zm-35.07-5.01c2.95-.2-1.19,7.43-4.48,7.66-1.21,.08-.73-1.15-.73-1.15-.44-.06-.82,.01-1.16,.17,1.32-3.23,4.14-6.52,6.37-6.67Z" fill="#fff"/><path d="M85.01,8.21h0c.06,0,.12,0,.18,.02,.13,.03,.32,.1,.47,.41,.83,1.68-.44,6.86-2.88,11.79l-.27,.55,.61,.03c.19,0,.38,.01,.56,.01,2.2,0,3.11-.82,3.92-2.45l1.34,1.06c-1.68,2.91-4.14,4.5-7.3,4.72l-.97,.07h-.19s-.11,.17-.11,.17c-2.47,3.59-5.04,5.57-7.41,5.73-.3,.02-.59,.03-.86,.03-2.87,0-4.46-1.07-4.84-3.27l-.17-.97-.56,.81c-1.82,2.68-3.75,4.1-5.72,4.24-.26,.02-.51,.03-.75,.03-2.61,0-4-1.01-4.25-3.1l-.1-.84-.58,.62c-2.49,2.62-5.27,4.06-8.25,4.26-.35,.02-.71,.04-1.05,.04-4.49,0-7.36-2.05-7.5-5.35-.31-7.38,8.3-15.91,14.6-16.34,.17-.01,.34-.02,.5-.02,3.08,0,3.61,2.04,3.65,3.26,.12,3.59-3.58,9.06-9.66,9.48-.13,0-.26,.01-.38,.01-.69,0-1.19-.15-1.54-.45l-.7-.62,.04,.93c.09,2.04,1.31,3.16,3.46,3.16,.16,0,.32,0,.49-.02,5.25-.36,8.06-3.95,9.03-5.48v-.02s.03-.02,.03-.02c1.8-3.94,4.14-8.98,4.65-10.07l2.81-.19c.82-.06,1.17-.36,1.45-.6,.23-.2,.4-.34,.91-.38,.1,0,.17,.04,.2,.09,.01,.02,.02,.04,0,.09l-5.25,11.93c-.1,.18-.93,1.77-.31,2.81,.31,.53,.9,.79,1.76,.79,.1,0,.21,0,.32-.01,1.18-.08,2.6-1.83,4.35-5.37,.77-1.78,3.96-8.67,4.55-9.89l2.83-.19c.8-.06,1.15-.36,1.43-.6,.23-.2,.4-.34,.89-.38,.09,0,.17,.03,.21,.08,.02,.03,.03,.08,.03,.09-.04,.08-3.56,7.92-4.35,9.81-.33,.81-1.34,3.26-.4,4.67,.43,.64,1.18,.97,2.22,.97,.12,0,.25,0,.39-.01l1.65-.11-.03-.4-.06-.4c-.09,0-.16-.02-.23-.14-.73-1.27,1.03-7,3.43-11.16,1.41-2.43,2.8-3.88,3.74-3.88m-39.76,12.18l.92-.42c.16-.07,.33-.12,.5-.14-.02,.24,.01,.51,.17,.74,.13,.19,.4,.42,.93,.42,.04,0,.09,0,.14,0,2.74-.19,5.94-4.92,5.86-7.14-.03-.83-.51-1.32-1.3-1.32h0s-.09,0-.14,0c-2.5,.17-5.38,3.65-6.71,6.92l-.38,.93M85.01,7.81c-3.73,0-9.92,15.99-6.94,15.99,.02,0,.04,0,.06,0,0,0-1.4,.1-1.65,.11-.13,0-.25,.01-.36,.01-3.46,0-1.97-3.84-1.46-5.09,.79-1.9,4.34-9.79,4.34-9.79,.12-.38-.15-.73-.6-.73-.02,0-.04,0-.06,0-1.21,.08-.98,.88-2.29,.97-.53,.04-3.05,.21-3.05,.21,0,0,0,0,0,0-.04,0-3.84,8.19-4.67,10.12-1.16,2.36-2.75,5.04-4.01,5.13-.1,0-.2,.01-.29,.01-2.74,0-1.1-3.01-1.1-3.01l5.27-11.96c.17-.38-.15-.73-.56-.73-.02,0-.03,0-.05,0-1.26,.09-.98,.88-2.34,.98-.48,.03-3.05,.21-3.05,.21,0,0-2.71,5.81-4.75,10.29-.87,1.37-3.6,4.94-8.72,5.29-.16,.01-.31,.02-.46,.02-2.13,0-2.99-1.14-3.06-2.78,.39,.35,.96,.55,1.8,.55,.13,0,.26,0,.4-.01,9.52-.66,13.78-13.54,5.97-13.54-.17,0-.35,0-.53,.02-6.53,.45-15.29,9.26-14.97,16.76,.15,3.51,3.23,5.73,7.9,5.73,.35,0,.71-.01,1.08-.04,3.6-.25,6.43-2.2,8.51-4.39,.23,1.87,1.4,3.45,4.65,3.45,.25,0,.51,0,.78-.03,2.32-.16,4.34-1.93,6.03-4.41,.36,2.04,1.77,3.61,5.23,3.61,.28,0,.58-.01,.89-.03,2.81-.19,5.47-2.65,7.71-5.9l.97-.07c2.37-.16,5.58-1.16,7.79-5.22l-2.01-1.58c-.86,1.93-1.65,2.67-3.77,2.67-.17,0-.35,0-.54-.01,2.95-5.96,4.23-12.37,2.13-12.78-.08-.02-.17-.03-.25-.03h0Zm-39.01,11.8c1.32-3.23,4.14-6.52,6.37-6.67,.04,0,.08,0,.11,0,2.73,0-1.34,7.44-4.59,7.66-.04,0-.08,0-.11,0-1.07,0-.62-1.16-.62-1.16-.1-.01-.2-.02-.3-.02-.32,0-.61,.07-.86,.18h0Z" fill="#4674b5"/></g></g></g></g></svg>